<?xml version="1.0" encoding="UTF-8"?>
<svg version="1.1" xmlns="http://www.w3.org/2000/svg" width="620" height="402">
<path d="M0 0 C2.4375 2.1875 2.4375 2.1875 4 4 C5.051875 2.824375 5.051875 2.824375 6.125 1.625 C10.61269519 -2.47246083 14.78050588 -3.39828711 20.83203125 -3.26953125 C24.73800141 -2.78392415 28.34690155 -1.4206494 32 0 C32 0.66 32 1.32 32 2 C32.99 2.33 33.98 2.66 35 3 C35 3.66 35 4.32 35 5 C35.66 5 36.32 5 37 5 C40.55568862 12.50326765 40.5805935 19.72935181 40.75 27.9375 C40.79182716 29.28974934 40.8347869 30.64196414 40.87890625 31.99414062 C41.07487474 39.13973231 41.07487474 39.13973231 41 42 C40 43 40 43 36.62109375 43.09765625 C35.22652923 43.09098369 33.83198257 43.07902532 32.4375 43.0625 C31.72658203 43.05798828 31.01566406 43.05347656 30.28320312 43.04882812 C28.52209987 43.03700864 26.76103964 43.01907263 25 43 C24.98541748 42.13197754 24.97083496 41.26395508 24.95581055 40.36962891 C24.89479889 37.15261121 24.82065609 33.93624337 24.73754883 30.71972656 C24.70427127 29.32693911 24.67624803 27.93401589 24.65356445 26.54101562 C24.62007311 24.54008622 24.56618695 22.53953079 24.51171875 20.5390625 C24.48553467 19.33459473 24.45935059 18.13012695 24.43237305 16.88916016 C24.21834839 15.45902588 24.21834839 15.45902588 24 14 C20.73718826 11.82479218 19.7659092 11.71755681 16 12 C15.01 12.33 14.02 12.66 13 13 C12.67 22.9 12.34 32.8 12 43 C7.05 43 2.1 43 -3 43 C-3.04898437 41.16953125 -3.09796875 39.3390625 -3.1484375 37.453125 C-3.22347053 35.05206804 -3.29901813 32.65102712 -3.375 30.25 C-3.4059375 29.0434375 -3.436875 27.836875 -3.46875 26.59375 C-3.50742187 25.43359375 -3.54609375 24.2734375 -3.5859375 23.078125 C-3.6173584 22.00981445 -3.6487793 20.94150391 -3.68115234 19.84082031 C-3.99686195 17.02795891 -4.40566458 15.32504437 -6 13 C-8.8596006 11.82889551 -8.8596006 11.82889551 -12 12 C-14.876991 14.14244011 -15.88363687 15.37488642 -16.54589844 18.93261719 C-16.5668457 20.04282227 -16.58779297 21.15302734 -16.609375 22.296875 C-16.64160156 23.50214844 -16.67382812 24.70742187 -16.70703125 25.94921875 C-16.72830078 27.83060547 -16.72830078 27.83060547 -16.75 29.75 C-16.77964844 31.01972656 -16.80929687 32.28945312 -16.83984375 33.59765625 C-16.91053034 36.73142836 -16.95753006 39.8657185 -17 43 C-21.62 43 -26.24 43 -31 43 C-31.11540982 38.4451592 -31.21473472 33.89547552 -31.2746582 29.34033203 C-31.29965732 27.79425788 -31.33366902 26.24830018 -31.37719727 24.70263672 C-31.80815776 8.99539441 -31.80815776 8.99539441 -27.35668945 3.33935547 C-25.6558313 1.66022863 -24.15262924 0.48290161 -21.9375 -0.4375 C-21.28652344 -0.72496094 -20.63554687 -1.01242188 -19.96484375 -1.30859375 C-12.74266102 -3.84999801 -6.87815543 -3.63374249 0 0 Z " fill="#EDEDED" transform="translate(350,179)"/>
<path d="M0 0 C2.1161902 3.1742853 2.23249987 3.81913631 2.125 7.421875 C2.10953125 8.28296875 2.0940625 9.1440625 2.078125 10.03125 C2.02649029 11.82813795 1.97441482 13.62501329 1.921875 15.421875 C1.8275717 20.70285974 2.03446843 25.06030883 4 30 C7.35327639 32.23551759 7.90743657 32.17283528 11.6875 31.625 C12.49574219 31.51414063 13.30398438 31.40328125 14.13671875 31.2890625 C14.75160156 31.19367188 15.36648438 31.09828125 16 31 C17.94315131 24.5481304 18.18686108 18.83331274 18 12.125 C17.94912586 10.25283171 17.90701001 8.38039831 17.875 6.5078125 C17.85179687 5.68941895 17.82859375 4.87102539 17.8046875 4.02783203 C18 2 18 2 20 0 C22.78515625 -0.23046875 22.78515625 -0.23046875 26.0625 -0.1875 C27.68865234 -0.17783203 27.68865234 -0.17783203 29.34765625 -0.16796875 C32 0 32 0 33 1 C33.11394577 2.49169128 33.15955641 3.98868393 33.17700195 5.48461914 C33.19625481 6.91729881 33.19625481 6.91729881 33.21589661 8.37892151 C33.22328354 9.42047897 33.23067047 10.46203644 33.23828125 11.53515625 C33.246353 12.60237411 33.25442474 13.66959198 33.26274109 14.76914978 C33.27660601 17.03643153 33.28731732 19.30373436 33.29516602 21.57104492 C33.3123073 25.02368514 33.35616413 28.47535025 33.40039062 31.92773438 C33.41052343 34.13020129 33.41903769 36.33267635 33.42578125 38.53515625 C33.44328934 39.5625441 33.46079742 40.58993195 33.47883606 41.64845276 C33.45917421 48.21581537 32.39276787 52.35490101 29 58 C28.34 58 27.68 58 27 58 C26.67 58.99 26.34 59.98 26 61 C19.9094922 64.83476417 15.42436103 66.18093893 8.1875 66.1875 C7.48818359 66.19974609 6.78886719 66.21199219 6.06835938 66.22460938 C1.37017983 66.23779416 -1.36059852 65.54646716 -6 64 C-6 59.38 -6 54.76 -6 50 C-4.83082031 50.08378906 -3.66164063 50.16757813 -2.45703125 50.25390625 C-0.90887717 50.35711652 0.63930126 50.4599619 2.1875 50.5625 C2.95642578 50.61857422 3.72535156 50.67464844 4.51757812 50.73242188 C8.54061353 50.99141557 12.06072372 51.06573607 16 50 C16.66 48.02 17.32 46.04 18 44 C17.47792969 44.23976562 16.95585937 44.47953125 16.41796875 44.7265625 C9.87478087 47.36217233 4.69445247 47.19595097 -2 45 C-5 43.0625 -5 43.0625 -7 41 C-7.53625 40.566875 -8.0725 40.13375 -8.625 39.6875 C-14.88028758 32.01055615 -14.14109684 21.85506518 -14.0625 12.5625 C-14.05798828 11.54478516 -14.05347656 10.52707031 -14.04882812 9.47851562 C-14.03712437 6.98561491 -14.02072848 4.49283926 -14 2 C-9.14615225 0.54093918 -5.0977903 -0.49978336 0 0 Z " fill="#F0F0F0" transform="translate(483,176)"/>
<path d="M0 0 C5.15055202 3.59918093 9.27208578 7.45813549 10.58203125 13.83203125 C11.18469562 21.62580947 10.97059045 28.04803195 7 35 C2.51106557 39.83601699 -1.9599774 42.78209791 -8.6796875 43.14453125 C-12.98922507 43.20740249 -16.82943691 43.11048858 -21 42 C-21.06058594 43.28777344 -21.12117188 44.57554687 -21.18359375 45.90234375 C-21.26798247 47.58074159 -21.3526313 49.25912636 -21.4375 50.9375 C-21.47681641 51.78763672 -21.51613281 52.63777344 -21.55664062 53.51367188 C-21.59853516 54.32255859 -21.64042969 55.13144531 -21.68359375 55.96484375 C-21.73858032 57.08814087 -21.73858032 57.08814087 -21.79467773 58.23413086 C-22 60 -22 60 -23 61 C-25.35313555 61.07271741 -27.70833668 61.08370868 -30.0625 61.0625 C-31.99802734 61.04896484 -31.99802734 61.04896484 -33.97265625 61.03515625 C-34.97167969 61.02355469 -35.97070312 61.01195312 -37 61 C-37.05081435 54.55879087 -37.08578161 48.11763368 -37.10986328 41.67626953 C-37.11990526 39.48614571 -37.13354147 37.29603525 -37.15087891 35.10595703 C-37.17520627 31.95341694 -37.18650131 28.80105452 -37.1953125 25.6484375 C-37.20563507 24.67321136 -37.21595764 23.69798523 -37.22659302 22.69320679 C-37.22787551 14.87831716 -35.9233613 9.29096167 -31 3 C-22.19468248 -4.04425402 -9.97326348 -5.54530003 0 0 Z M-21 14 C-22.72952133 17.45904266 -22.47783755 21.21768025 -22 25 C-19.98614124 28.09824425 -18.61652188 28.79896026 -15.125 29.9375 C-11.25273913 30.01494522 -9.24531086 29.06519782 -6 27 C-3.55478885 23.33218328 -3.27762241 20.26546767 -4 16 C-5.87015094 13.56880377 -7.28138345 12.35930827 -10 11 C-14.6478538 10.58685744 -17.24440152 11.21012684 -21 14 Z " fill="#EFEFEF" transform="translate(434,179)"/>
<path d="M0 0 C5.57075636 4.27606032 8.42769646 9.55298705 9.3984375 16.48828125 C9.71529242 23.79638655 8.30291638 29.99397903 3.44140625 35.6015625 C-3.15906115 41.75605237 -10.10554943 42.00513994 -18.796875 42.046875 C-26.34456636 41.41712897 -30.9466049 38.19293145 -35.98046875 32.78125 C-39.9072576 26.64564241 -39.65360605 19.9060149 -38.98046875 12.78125 C-37.37679324 6.8843266 -34.54623643 3.25854293 -30.16796875 -0.96875 C-20.89688697 -6.26651102 -8.94857853 -5.50681756 0 0 Z M-21.41796875 11.03125 C-24.87154708 14.73752919 -24.62201492 17.31132855 -24.58203125 22.22265625 C-24.19814209 24.89606352 -24.19814209 24.89606352 -22.12109375 26.56640625 C-19.29400565 28.17083034 -17.23662481 28.65100376 -13.98046875 28.78125 C-10.80282744 27.62018875 -8.70170228 26.65927343 -6.54296875 24.03125 C-5.69605111 20.64357946 -6.13832881 18.14980977 -6.98046875 14.78125 C-9.1752667 11.57346838 -10.61374381 10.88990924 -14.35546875 9.78125 C-18.02229668 9.57478023 -18.02229668 9.57478023 -21.41796875 11.03125 Z " fill="#ECECEC" transform="translate(304.98046875,180.21875)"/>
<path d="M0 0 C1.00546875 -0.01417969 2.0109375 -0.02835938 3.046875 -0.04296875 C6.25 0.1875 6.25 0.1875 13.25 2.1875 C13.25 7.1375 13.25 12.0875 13.25 17.1875 C11.249375 16.81625 9.24875 16.445 7.1875 16.0625 C1.78949166 15.22751396 -1.7616254 14.97044462 -6.75 17.1875 C-9.31077765 19.74827765 -9.06451364 21.61632603 -9.2109375 25.1171875 C-8.52997403 28.17575225 -7.23041006 29.32305844 -4.75 31.1875 C-1.91152842 31.70757039 -1.91152842 31.70757039 1.125 31.5 C2.63707031 31.46326172 2.63707031 31.46326172 4.1796875 31.42578125 C7.22202173 31.18967134 10.2400362 30.68916063 13.25 30.1875 C13.25 35.1375 13.25 40.0875 13.25 45.1875 C4.45020509 47.11622217 -4.1077663 48.58213382 -12.75 45.1875 C-17.89026275 41.6384838 -23.16914542 37.35296252 -24.33203125 31.015625 C-25.358595 15.07778772 -25.358595 15.07778772 -19.5625 7.875 C-16.22414086 4.32058839 -13.35928976 2.69438319 -8.75 1.1875 C-5.60654496 0.13968165 -3.29972408 0.02093734 0 0 Z " fill="#EDEDED" transform="translate(248.75,175.8125)"/>
<path d="M0 0 C4.95 0 9.9 0 15 0 C15 20.79 15 41.58 15 63 C10.05 63 5.1 63 0 63 C0 42.21 0 21.42 0 0 Z " fill="#F4F4F4" transform="translate(449,159)"/>
<path d="M0 0 C2.31 0.33 4.62 0.66 7 1 C6.96519531 1.61746094 6.93039063 2.23492187 6.89453125 2.87109375 C6.57131121 12.98326371 8.49376729 18.82060786 15.4375 26.3125 C17.26581144 28.23713554 19.12507999 30.11963756 21 32 C21.77472656 32.77730469 22.54945313 33.55460937 23.34765625 34.35546875 C24.16556641 35.16951172 24.16556641 35.16951172 25 36 C20.55659886 38.34745721 16.27168152 40.29109456 11.5 41.875 C2.62774052 45.04541959 -2.6147629 49.69334896 -7 58 C-9.31 57.67 -11.62 57.34 -14 57 C-12.47106445 49.68977691 -7.40047135 44.9663789 -1.625 40.64453125 C2.96483252 37.76905581 7.93006199 35.86155084 13 34 C12.41992188 33.32904297 12.41992188 33.32904297 11.828125 32.64453125 C4.2851823 23.88799629 -0.17389188 18.60643085 -0.0625 6.6875 C-0.05347656 5.43324219 -0.04445312 4.17898437 -0.03515625 2.88671875 C-0.02355469 1.93410156 -0.01195312 0.98148438 0 0 Z " fill="#780DB3" transform="translate(178,155)"/>
<path d="M0 0 C0.66 0.33 1.32 0.66 2 1 C3.05941439 14.03668262 -1.53671386 24.53882083 -9 35 C-7.5459375 35.1546875 -7.5459375 35.1546875 -6.0625 35.3125 C2.25564477 36.52486118 9.63245624 39.27797795 15.375 45.625 C17 48 17 48 17 50 C17.66 50 18.32 50 19 50 C19.38133299 51.9914056 19.71325582 53.99279077 20 56 C19 57 19 57 15.9375 57.0625 C14.968125 57.041875 13.99875 57.02125 13 57 C12.4121875 55.63875 12.4121875 55.63875 11.8125 54.25 C9.91456265 50.84680199 8.06322467 49.31811597 5 47 C5 46.34 5 45.68 5 45 C-3.15906215 41.94035169 -11.44538652 40.48000061 -20 39 C-18.63985977 35.0457779 -16.85300159 32.40006975 -14.125 29.25 C-6.99323196 20.4614873 -5.34867111 13.27951028 -5 2 C-2.625 0.9375 -2.625 0.9375 0 0 Z " fill="#7F0FBF" transform="translate(138,193)"/>
<path d="M0 0 C0.03440186 0.6798999 0.06880371 1.3597998 0.10424805 2.06030273 C0.27564937 5.18777893 0.48133145 8.31213074 0.6875 11.4375 C0.76774414 13.04141602 0.76774414 13.04141602 0.84960938 14.67773438 C1.38931749 22.35097587 2.89686233 29.11032382 8.6706543 34.58374023 C9.10933838 35.05110596 9.54802246 35.51847168 10 36 C9.875 38.5625 9.875 38.5625 9 41 C8.01 41.66 7.02 42.32 6 43 C-1.44429296 38.03713803 -3.78631124 28.31454334 -5.4765625 19.97265625 C-6.06144707 16.65103568 -6.61044094 13.35020791 -7 10 C-7.66386719 10.34933594 -8.32773438 10.69867188 -9.01171875 11.05859375 C-9.89472656 11.51363281 -10.77773437 11.96867188 -11.6875 12.4375 C-12.99267578 13.11619141 -12.99267578 13.11619141 -14.32421875 13.80859375 C-22.2602245 17.34214375 -30.87671702 16.47363128 -39 14 C-40.34787458 13.36324546 -41.68614325 12.70427456 -43 12 C-42.1875 9.5625 -42.1875 9.5625 -41 7 C-38 6 -38 6 -34.3125 7.4375 C-25.9402117 10.69844562 -20.13475484 8.6626873 -12.0703125 5.37890625 C-0.09348442 0 -0.09348442 0 0 0 Z " fill="#A70EC5" transform="translate(163,151)"/>
<path d="M0 0 C1.70892588 0.45611901 3.41711229 0.91500891 5.125 1.375 C6.55199219 1.75785156 6.55199219 1.75785156 8.0078125 2.1484375 C11 3 11 3 13.82421875 4.0859375 C17.85584605 5.24633207 21.51701976 5.29318012 25.6875 5.25 C26.44611328 5.25773438 27.20472656 5.26546875 27.98632812 5.2734375 C31.84350994 5.25981991 33.72091189 5.18605874 37 3 C39.6875 3.375 39.6875 3.375 42 4 C42.495 6.475 42.495 6.475 43 9 C29.87768171 13.7105758 20.2858567 13.01606695 7 9 C7.165 9.928125 7.33 10.85625 7.5 11.8125 C8.84171291 21.57938071 8.60001055 30.59998417 3 39 C2.34 39 1.68 39 1 39 C0.34 40.32 -0.32 41.64 -1 43 C-4 43 -4 43 -5.6875 41.5 C-6.120625 41.005 -6.55375 40.51 -7 40 C-5.91755848 37.56450657 -4.81416395 35.78419039 -3.0625 33.75 C1.79547739 27.27269681 2.59479144 20.95360651 2 13 C1.72057545 11.32345271 1.39171753 9.65391846 1 8 C0.62890019 5.33710809 0.31679373 2.67011859 0 0 Z " fill="#8F0BDC" transform="translate(111,175)"/>
<path d="M0 0 C13.89218888 2.04966721 21.9006236 10.30038997 30 21 C30.32871094 20.3709375 30.65742188 19.741875 30.99609375 19.09375 C35.61532556 10.7816364 40.9731557 3.95722979 50.3125 1 C53.43194122 0.19627923 55.71244324 0 59 0 C59 2.31 59 4.62 59 7 C57.80375 7.268125 56.6075 7.53625 55.375 7.8125 C51.61394629 8.74444251 48.42488042 10.16808722 45 12 C44.01 12.33 43.02 12.66 42 13 C41.67 13.99 41.34 14.98 41 16 C40.34 16 39.68 16 39 16 C38.73445313 16.70511719 38.46890625 17.41023438 38.1953125 18.13671875 C36.93501033 21.15567786 35.46042006 23.95185076 33.875 26.8125 C33.33617187 27.78832031 32.79734375 28.76414063 32.2421875 29.76953125 C31.83226562 30.50558594 31.42234375 31.24164063 31 32 C26.97449681 30.6581656 26.11714364 28.5772427 24 25 C24 24.34 24 23.68 24 23 C23.34 23 22.68 23 22 23 C22 22.01 22 21.02 22 20 C21.01 19.67 20.02 19.34 19 19 C17.64613064 17.34997172 16.31321858 15.6825613 15 14 C14.01 13.34 13.02 12.68 12 12 C12 11.34 12 10.68 12 10 C11.13375 9.87625 10.2675 9.7525 9.375 9.625 C6.10486147 9.01941879 3.12743101 8.11693965 0 7 C0 4.69 0 2.38 0 0 Z " fill="#840FBE" transform="translate(144,211)"/>
<path d="M0 0 C0.87398438 0.32484375 0.87398438 0.32484375 1.765625 0.65625 C11.21096703 3.86410201 20.24206645 3.50122055 30 2 C30 4 30 4 28.5 6 C23.29692496 10.16246004 16.46744731 10.60670237 10 10 C5.31786683 9.24157182 1.19812586 8.25034674 -3 6 C-1.125 1.125 -1.125 1.125 0 0 Z " fill="#8906EF" transform="translate(123,157)"/>
<path d="M0 0 C6.27033071 0.5878435 11.31361695 4.18713822 15.5 8.6875 C17 11 17 11 17 13 C17.66 13 18.32 13 19 13 C19.38133299 14.9914056 19.71325582 16.99279077 20 19 C19 20 19 20 15.9375 20.0625 C14.968125 20.041875 13.99875 20.02125 13 20 C12.608125 19.0925 12.21625 18.185 11.8125 17.25 C9.91456265 13.84680199 8.06322467 12.31811597 5 10 C5 9.34 5 8.68 5 8 C-1.25461856 5.73383385 -7.45150687 4.16204993 -14 3 C-14 2.67 -14 2.34 -14 2 C-7.1781317 1.61385651 -1.50422293 2.99134292 5 5 C5 4.34 5 3.68 5 3 C3.35 2.34 1.7 1.68 0 1 C0 0.67 0 0.34 0 0 Z " fill="#7B0DA6" transform="translate(138,230)"/>
<path d="M0 0 C2.31 0.33 4.62 0.66 7 1 C6.96519531 1.59425781 6.93039063 2.18851563 6.89453125 2.80078125 C6.66951384 9.69059998 7.98017908 15.44866375 10 22 C10.34281457 23.33092714 10.67984738 24.66344054 11 26 C6.71929301 25.52436589 4.6995915 23.19688467 2 20 C0.07829853 15.42608725 -0.21810692 11.5596668 -0.125 6.625 C-0.10695312 5.37976563 -0.08890625 4.13453125 -0.0703125 2.8515625 C-0.04710937 1.91054687 -0.02390625 0.96953125 0 0 Z " fill="#8D0EC7" transform="translate(178,155)"/>
<path d="M0 0 C0 2.31 0 4.62 0 7 C-1.19625 7.268125 -2.3925 7.53625 -3.625 7.8125 C-8.47246337 9.02650317 -12.49627362 11.07725881 -16.75 13.6875 C-19 15 -19 15 -21 15 C-21.33 14.01 -21.66 13.02 -22 12 C-18.70322953 6.13907472 -15.42707046 3.1642017 -9 1.3125 C-7.7315625 0.93544922 -7.7315625 0.93544922 -6.4375 0.55078125 C-4 0 -4 0 0 0 Z " fill="#9116AD" transform="translate(203,211)"/>
<path d="M0 0 C0.66 0.33 1.32 0.66 2 1 C1.67 2.32 1.34 3.64 1 5 C0.34 5 -0.32 5 -1 5 C-1 6.32 -1 7.64 -1 9 C-0.35933594 8.88140625 0.28132813 8.7628125 0.94140625 8.640625 C7.46015032 7.66912812 10.63096754 8.1483028 16 12 C16 12.66 16 13.32 16 14 C8.375 13.125 8.375 13.125 5 12 C2.60745424 11.77439324 0.21071877 11.59151405 -2.1875 11.4375 C-3.45980469 11.35371094 -4.73210937 11.26992187 -6.04296875 11.18359375 C-7.50669922 11.09271484 -7.50669922 11.09271484 -9 11 C-7.73420531 7.24736623 -6.47163895 5.15334212 -3.375 2.6875 C-2.74335937 2.17574219 -2.11171875 1.66398438 -1.4609375 1.13671875 C-0.73777344 0.57404297 -0.73777344 0.57404297 0 0 Z " fill="#8509E3" transform="translate(127,221)"/>
<path d="M0 0 C7.32110622 1.16208035 12.09297127 3.559255 18 8 C17.01 8.495 17.01 8.495 16 9 C15.01 8.67 14.02 8.34 13 8 C13.19471111 9.94999129 13.19471111 9.94999129 14 12 C15.9837767 13.28436734 15.9837767 13.28436734 18 14 C17.67 14.66 17.34 15.32 17 16 C15.2925002 14.71937515 13.62626404 13.38232443 12 12 C12 11.34 12 10.68 12 10 C11.13375 9.87625 10.2675 9.7525 9.375 9.625 C6.10486147 9.01941879 3.12743101 8.11693965 0 7 C0 4.69 0 2.38 0 0 Z " fill="#6310A4" transform="translate(144,211)"/>
<path d="M0 0 C0.33 0 0.66 0 1 0 C1.18451025 9.41002278 1.18451025 9.41002278 0 14 C-0.66 14 -1.32 14 -2 14 C-2 15.98 -2 17.96 -2 20 C-1.34 20.33 -0.68 20.66 0 21 C0.66 19.68 1.32 18.36 2 17 C2.33 17.66 2.66 18.32 3 19 C1.6875 21.625 1.6875 21.625 0 24 C-0.66 24 -1.32 24 -2 24 C-2.66 25.32 -3.32 26.64 -4 28 C-7 28 -7 28 -8.6875 26.5 C-9.120625 26.005 -9.55375 25.51 -10 25 C-8.91755848 22.56450657 -7.81416395 20.78419039 -6.0625 18.75 C-1.7875692 13.05009227 -0.62345378 6.98268233 0 0 Z " fill="#660CB7" transform="translate(114,190)"/>
<path d="M0 0 C0.06058594 1.07121094 0.12117187 2.14242187 0.18359375 3.24609375 C0.26798537 4.64324391 0.35263406 6.04037857 0.4375 7.4375 C0.47681641 8.14455078 0.51613281 8.85160156 0.55664062 9.58007812 C0.47624438 13.08690419 0.47624438 13.08690419 2 16 C2.20839236 17.45295785 2.36753581 18.9131631 2.5 20.375 C2.75521162 23.17321314 3.1027017 25.30810511 4 28 C3.01 27.67 2.02 27.34 1 27 C0.0859375 24.09375 0.0859375 24.09375 -0.625 20.5 C-1.13116586 16.43022525 -1.13116586 16.43022525 -3 13 C-3.14115161 10.32941149 -3.04247107 7.67567762 -3 5 C-4.32 5.33 -5.64 5.66 -7 6 C-7 4.68 -7 3.36 -7 2 C-1.125 0 -1.125 0 0 0 Z " fill="#C306F4" transform="translate(161,154)"/>
<path d="M0 0 C0.66 0.33 1.32 0.66 2 1 C1.01 2.485 1.01 2.485 0 4 C0.33 4.33 0.66 4.66 1 5 C0.62056512 9.09789669 0.30694043 11.53958935 -2 15 C-4.31 14.67 -6.62 14.34 -9 14 C-8.39809977 10.95705993 -7.4634908 8.92781936 -5.625 6.4375 C-5.20476562 5.85871094 -4.78453125 5.27992188 -4.3515625 4.68359375 C-2.99854836 2.99819174 -1.55651887 1.49735295 0 0 Z " fill="#650DB1" transform="translate(173,198)"/>
<path d="M0 0 C0.04487549 0.69561035 0.08975098 1.3912207 0.13598633 2.10791016 C0.34823423 5.28132027 0.58017927 8.45299882 0.8125 11.625 C0.88275391 12.71941406 0.95300781 13.81382812 1.02539062 14.94140625 C1.45802624 20.65219643 1.96845318 25.00002414 5 30 C5 30.66 5 31.32 5 32 C2 31 2 31 0 28 C-0.37890625 25.7734375 -0.37890625 25.7734375 -0.5625 23.375 C-0.58977223 20.38885578 -0.58977223 20.38885578 -2 18 C-2.23527773 15.65012738 -2.41386417 13.29443961 -2.5625 10.9375 C-2.64628906 9.64714844 -2.73007813 8.35679687 -2.81640625 7.02734375 C-2.87699219 6.02832031 -2.93757812 5.02929688 -3 4 C-4.98 4.33 -6.96 4.66 -9 5 C-2.87096774 0 -2.87096774 0 0 0 Z " fill="#80149D" transform="translate(163,151)"/>
<path d="M0 0 C3.40312738 1.05875074 6.01353231 2.00902154 9 4 C9 4.66 9 5.32 9 6 C9.66 6 10.32 6 11 6 C11.38133299 7.9914056 11.71325582 9.99279077 12 12 C11 13 11 13 7.9375 13.0625 C6.968125 13.041875 5.99875 13.02125 5 13 C4.34 9.7 3.68 6.4 3 3 C2.01 2.67 1.02 2.34 0 2 C0 1.34 0 0.68 0 0 Z " fill="#C706F3" transform="translate(146,237)"/>
<path d="M0 0 C0.66 0 1.32 0 2 0 C2.08724706 3.4165052 2.14047325 6.83272313 2.1875 10.25 C2.21263672 11.21808594 2.23777344 12.18617188 2.26367188 13.18359375 C2.27333984 14.11816406 2.28300781 15.05273438 2.29296875 16.015625 C2.3086792 16.87446289 2.32438965 17.73330078 2.34057617 18.61816406 C1.93095949 21.48283816 0.886136 22.85063164 -1 25 C-1.99 24.67 -2.98 24.34 -4 24 C-3.67 22.02 -3.34 20.04 -3 18 C-2.34 18 -1.68 18 -1 18 C-0.505 9.09 -0.505 9.09 0 0 Z " fill="#8E05F4" transform="translate(115,186)"/>
<path d="M0 0 C0.6290625 0.20496094 1.258125 0.40992188 1.90625 0.62109375 C7.30281819 2.31971235 12.36659614 3.47838853 18 4 C17.67 4.66 17.34 5.32 17 6 C11.01006953 6.3152595 7.36439644 5.68219822 2 3 C2.33 4.32 2.66 5.64 3 7 C5.97 7.495 5.97 7.495 9 8 C9 8.33 9 8.66 9 9 C4.12335991 9.34833144 1.22949995 8.41685712 -3 6 C-1.125 1.125 -1.125 1.125 0 0 Z " fill="#6312AC" transform="translate(123,157)"/>
<path d="M0 0 C-0.33 0.99 -0.66 1.98 -1 3 C-3.31 3.33 -5.62 3.66 -8 4 C-8 4.66 -8 5.32 -8 6 C-12.455 7.485 -12.455 7.485 -17 9 C-15.83967658 4.35870631 -14.88115928 3.52887543 -11.12109375 0.97265625 C-7.48427937 -0.69505421 -3.90918335 -0.39889626 0 0 Z " fill="#970CD8" transform="translate(194,191)"/>
<path d="M0 0 C3.53599998 0.07072 6.1041863 0.19163015 8.80078125 2.625 C10.27675028 4.37220916 11.67266996 6.13784833 13 8 C12.67 8.66 12.34 9.32 12 10 C11.01 9.34 10.02 8.68 9 8 C9 9.32 9 10.64 9 12 C6 11 6 11 4.5 8.125 C4.005 7.09375 3.51 6.0625 3 5 C2.01834406 3.98198643 1.02408568 2.9753197 0 2 C0 1.34 0 0.68 0 0 Z " fill="#6C0DAA" transform="translate(157,219)"/>
<path d="M0 0 C2.31 0.33 4.62 0.66 7 1 C7 3.97 7 6.94 7 10 C6.01 10 5.02 10 4 10 C4 7.36 4 4.72 4 2 C3.34 2 2.68 2 2 2 C2.33 7.94 2.66 13.88 3 20 C2.34 19.67 1.68 19.34 1 19 C-0.20255163 14.92342562 -0.10196591 10.91035258 -0.0625 6.6875 C-0.05347656 5.43324219 -0.04445312 4.17898437 -0.03515625 2.88671875 C-0.01775391 1.45779297 -0.01775391 1.45779297 0 0 Z " fill="#68129E" transform="translate(178,155)"/>
<path d="M0 0 C0 0.99 0 1.98 0 3 C-2.88265149 3.96088383 -4.67662271 4.11670941 -7.66796875 4.09765625 C-8.56064453 4.09443359 -9.45332031 4.09121094 -10.37304688 4.08789062 C-11.76620117 4.07532227 -11.76620117 4.07532227 -13.1875 4.0625 C-14.12787109 4.05798828 -15.06824219 4.05347656 -16.03710938 4.04882812 C-18.35813712 4.03704626 -20.67903644 4.02059558 -23 4 C-23 3.34 -23 2.68 -23 2 C-21.86820313 1.93941406 -20.73640625 1.87882813 -19.5703125 1.81640625 C-18.08852855 1.73200083 -16.6067584 1.64735283 -15.125 1.5625 C-14.37863281 1.52318359 -13.63226563 1.48386719 -12.86328125 1.44335938 C-8.3219871 1.17742774 -4.52346237 -0.11903848 0 0 Z " fill="#B903F5" transform="translate(151,181)"/>
<path d="M0 0 C0.763125 0.20625 1.52625 0.4125 2.3125 0.625 C2.69468767 2.28114657 3.02645102 3.94957024 3.3125 5.625 C2.3125 6.625 2.3125 6.625 -0.25 6.6875 C-1.4565625 6.6565625 -1.4565625 6.6565625 -2.6875 6.625 C-1.6975 6.295 -0.7075 5.965 0.3125 5.625 C0.3125 4.635 0.3125 3.645 0.3125 2.625 C-0.6775 2.955 -1.6675 3.285 -2.6875 3.625 C-7.38030474 4.95764232 -12.35697606 5.68248032 -16.92578125 3.609375 C-17.50714844 3.28453125 -18.08851563 2.9596875 -18.6875 2.625 C-17.78386719 2.57601562 -16.88023437 2.52703125 -15.94921875 2.4765625 C-14.76972656 2.40179688 -13.59023437 2.32703125 -12.375 2.25 C-10.61736328 2.14558594 -10.61736328 2.14558594 -8.82421875 2.0390625 C-5.14989353 1.55403327 -3.65521795 -0.51003041 0 0 Z " fill="#81169A" transform="translate(150.6875,178.375)"/>
<path d="M0 0 C1.125 3.75 1.125 3.75 0 6 C1.65 5.01 3.3 4.02 5 3 C3.66511872 6.59391114 2.03977277 9.75490696 0 13 C1.65 13.33 3.3 13.66 5 14 C5 14.33 5 14.66 5 15 C2.36 15 -0.28 15 -3 15 C-3 13.68 -3 12.36 -3 11 C-2.34 10.67 -1.68 10.34 -1 10 C-1.33 9.01 -1.66 8.02 -2 7 C-2.99 7.66 -3.98 8.32 -5 9 C-3.50163895 5.88801935 -1.80066242 2.9465385 0 0 Z " fill="#670FA3" transform="translate(129,215)"/>
<path d="M0 0 C0 0.66 0 1.32 0 2 C-3.4352048 4.29013653 -4.985331 4.17842973 -9 4 C-9 4.66 -9 5.32 -9 6 C-12.3 6 -15.6 6 -19 6 C-18 4 -18 4 -14.98046875 2.9296875 C-13.10294922 2.40761719 -13.10294922 2.40761719 -11.1875 1.875 C-9.94355469 1.52179688 -8.69960937 1.16859375 -7.41796875 0.8046875 C-4 0 -4 0 0 0 Z " fill="#A208EC" transform="translate(153,159)"/>
<path d="M0 0 C0.763125 0.804375 1.52625 1.60875 2.3125 2.4375 C4.79430898 5.16799024 4.79430898 5.16799024 8 6 C7.34 4.02 6.68 2.04 6 0 C8.93200474 2.85276137 11.64315404 5.65079784 14 9 C11.525 8.01 11.525 8.01 9 7 C9.66 8.98 10.32 10.96 11 13 C6.88981036 9.64026633 3.05359558 6.39717763 0 2 C0 1.34 0 0.68 0 0 Z " fill="#761199" transform="translate(181,175)"/>
<path d="M0 0 C5 1 5 1 7 3 C4.03 2.505 4.03 2.505 1 2 C1.165 2.928125 1.33 3.85625 1.5 4.8125 C2.45884782 11.53813254 2.50856345 18.36710989 1 25 C0.67 25 0.34 25 0 25 C0 16.75 0 8.5 0 0 Z " fill="#640FA2" transform="translate(117,182)"/>
<path d="M0 0 C11.52164009 3.07517084 11.52164009 3.07517084 17 5 C13.59598052 6.13732426 11.22543336 5.83989957 7.75 5.0625 C6.85796875 4.86785156 5.9659375 4.67320312 5.046875 4.47265625 C4.37140625 4.31667969 3.6959375 4.16070312 3 4 C3 6.97 3 9.94 3 13 C2.34 12.67 1.68 12.34 1 12 C0.5859375 9.27734375 0.5859375 9.27734375 0.375 5.9375 C0.30023438 4.83277344 0.22546875 3.72804687 0.1484375 2.58984375 C0.09945312 1.73519531 0.05046875 0.88054687 0 0 Z " fill="#6C14AB" transform="translate(111,175)"/>
<path d="M0 0 C1.44010481 0.25662245 2.8770687 0.53090821 4.3125 0.8125 C5.11300781 0.96332031 5.91351563 1.11414063 6.73828125 1.26953125 C9 2 9 2 12 5 C8.7 4.34 5.4 3.68 2 3 C2 3.99 2 4.98 2 6 C2.928125 6.103125 3.85625 6.20625 4.8125 6.3125 C8 7 8 7 11 10 C7.37 9.01 3.74 8.02 0 7 C0 4.69 0 2.38 0 0 Z " fill="#4F0D8D" transform="translate(144,211)"/>
<path d="M0 0 C0.33 0.99 0.66 1.98 1 3 C1.99 3 2.98 3 4 3 C4 5.97 4 8.94 4 12 C3.67 12 3.34 12 3 12 C2.67 9.69 2.34 7.38 2 5 C1.01 5.66 0.02 6.32 -1 7 C-1.99 6.67 -2.98 6.34 -4 6 C-3.01 5.67 -2.02 5.34 -1 5 C-1 4.34 -1 3.68 -1 3 C-2.85625 3.5259375 -2.85625 3.5259375 -4.75 4.0625 C-7.903292 4.95593273 -9.86774164 5.00881294 -13 4 C-11.2097939 3.32942113 -9.41778511 2.6636531 -7.625 2 C-6.62726563 1.62875 -5.62953125 1.2575 -4.6015625 0.875 C-2 0 -2 0 0 0 Z " fill="#6D138E" transform="translate(154,156)"/>
<path d="M0 0 C6.92307692 2 6.92307692 2 9 5 C9 6.32 9 7.64 9 9 C7.68 9 6.36 9 5 9 C5 8.01 5 7.02 5 6 C4.01 6 3.02 6 2 6 C0 3 0 3 0 0 Z " fill="#A00ECB" transform="translate(190,182)"/>
<path d="M0 0 C0.66 0.33 1.32 0.66 2 1 C2 1.66 2 2.32 2 3 C2.66 3 3.32 3 4 3 C4.38133299 4.9914056 4.71325582 6.99279077 5 9 C4 10 4 10 0.9375 10.0625 C-0.031875 10.041875 -1.00125 10.02125 -2 10 C-2.33 8.35 -2.66 6.7 -3 5 C-2.01 5.33 -1.02 5.66 0 6 C0 6.66 0 7.32 0 8 C0.66 8 1.32 8 2 8 C2 6.68 2 5.36 2 4 C1.34 4 0.68 4 0 4 C0 2.68 0 1.36 0 0 Z " fill="#7F1194" transform="translate(153,240)"/>
<path d="M0 0 C0.66 0.33 1.32 0.66 2 1 C2.05437607 2.58294782 2.09296271 4.16644256 2.125 5.75 C2.14820313 6.63171875 2.17140625 7.5134375 2.1953125 8.421875 C2 11 2 11 0 15 C0.33 11.04 0.66 7.08 1 3 C-0.65 3 -2.3 3 -4 3 C-4 6.63 -4 10.26 -4 14 C-4.33 14 -4.66 14 -5 14 C-5 10.04 -5 6.08 -5 2 C-3.35 1.34 -1.7 0.68 0 0 Z " fill="#461175" transform="translate(138,193)"/>
<path d="M0 0 C0 0.99 0 1.98 0 3 C1.32 3 2.64 3 4 3 C4 2.01 4 1.02 4 0 C5.32 0.66 6.64 1.32 8 2 C7.67 2.66 7.34 3.32 7 4 C4.93359375 4.6328125 4.93359375 4.6328125 2.4375 5.125 C1.61121094 5.29257813 0.78492188 5.46015625 -0.06640625 5.6328125 C-0.70449219 5.75398437 -1.34257812 5.87515625 -2 6 C-1.67 5.01 -1.34 4.02 -1 3 C-2.65 3 -4.3 3 -6 3 C-2.25 0 -2.25 0 0 0 Z " fill="#9515B0" transform="translate(195,188)"/>
<path d="M0 0 C0.66 0 1.32 0 2 0 C2.33 4.62 2.66 9.24 3 14 C2.01 14.33 1.02 14.66 0 15 C0 10.05 0 5.1 0 0 Z " fill="#A703F4" transform="translate(180,157)"/>
<path d="M0 0 C0.99 0 1.98 0 3 0 C3 3.63 3 7.26 3 11 C2.01 11.33 1.02 11.66 0 12 C0 8.04 0 4.08 0 0 Z " fill="#A405ED" transform="translate(135,197)"/>
<path d="M0 0 C0 1.65 0 3.3 0 5 C-0.66 5 -1.32 5 -2 5 C-2 7.64 -2 10.28 -2 13 C-2.33 13 -2.66 13 -3 13 C-3 10.36 -3 7.72 -3 5 C-4.32 5.33 -5.64 5.66 -7 6 C-7 4.68 -7 3.36 -7 2 C-1.125 0 -1.125 0 0 0 Z " fill="#B60DE9" transform="translate(161,154)"/>
<path d="M0 0 C1.15242187 0.00902344 2.30484375 0.01804688 3.4921875 0.02734375 C4.36101562 0.03894531 5.22984375 0.05054688 6.125 0.0625 C0.16512495 3.36605065 -6.29573544 3.58079182 -12.875 2.0625 C-12.875 1.7325 -12.875 1.4025 -12.875 1.0625 C-8.52167264 0.22226812 -4.43057481 -0.04520995 0 0 Z " fill="#7A119A" transform="translate(141.875,184.9375)"/>
<path d="M0 0 C1.4370809 -0.05422947 2.87475462 -0.09289723 4.3125 -0.125 C5.11300781 -0.14820313 5.91351563 -0.17140625 6.73828125 -0.1953125 C9 0 9 0 12 2 C12 2.66 12 3.32 12 4 C3.42857143 3.14285714 3.42857143 3.14285714 0 1 C0 0.67 0 0.34 0 0 Z " fill="#A209EB" transform="translate(131,231)"/>
<path d="M0 0 C0 2 0 4 0 6 C1.32 5.34 2.64 4.68 4 4 C3.67 4.99 3.34 5.98 3 7 C2.34 7 1.68 7 1 7 C0.34 8.65 -0.32 10.3 -1 12 C-2 10 -2 10 -3 7 C-3.33 6.34 -3.66 5.68 -4 5 C-2.68 3.35 -1.36 1.7 0 0 Z " fill="#7A0E9B" transform="translate(182,220)"/>
<path d="M0 0 C6.52307692 0.61538462 6.52307692 0.61538462 8.9375 2.5625 C9.288125 3.036875 9.63875 3.51125 10 4 C6.18510326 5.46726798 3.70988378 4.43336419 0 3 C0 2.01 0 1.02 0 0 Z " fill="#8206EF" transform="translate(146,214)"/>
<path d="M0 0 C0.99 0.495 0.99 0.495 2 1 C2.6328125 3.109375 2.6328125 3.109375 3.125 5.75 C3.29257813 6.61109375 3.46015625 7.4721875 3.6328125 8.359375 C3.9923991 10.94533821 4.06564041 13.39313809 4 16 C-0.26709374 10.990803 -0.12564343 6.4078147 0 0 Z " fill="#8913AE" transform="translate(158,167)"/>
<path d="M0 0 C1.65 0 3.3 0 5 0 C4.38722388 2.96175123 3.74627478 4.38058783 2 7 C1.01 6.67 0.02 6.34 -1 6 C-0.67 4.02 -0.34 2.04 0 0 Z " fill="#8508EC" transform="translate(112,204)"/>
<path d="M0 0 C0.33 0.66 0.66 1.32 1 2 C0.00390625 4.1640625 0.00390625 4.1640625 -1.4375 6.625 C-1.91058594 7.44226563 -2.38367188 8.25953125 -2.87109375 9.1015625 C-3.24363281 9.72804687 -3.61617187 10.35453125 -4 11 C-4.99 10.67 -5.98 10.34 -7 10 C-7 9.34 -7 8.68 -7 8 C-6.01 8 -5.02 8 -4 8 C-4 6.02 -4 4.04 -4 2 C-2.68 1.34 -1.36 0.68 0 0 Z " fill="#67118F" transform="translate(179,232)"/>
<path d="M0 0 C0 0.99 0 1.98 0 3 C-1.65 3.33 -3.3 3.66 -5 4 C-5 4.66 -5 5.32 -5 6 C-5.99 6 -6.98 6 -8 6 C-7.75 4.125 -7.75 4.125 -7 2 C-4.41847698 0.27898465 -3.15081975 0 0 0 Z " fill="#C005F3" transform="translate(192,217)"/>
<path d="M0 0 C0 1.32 0 2.64 0 4 C-2.64 4 -5.28 4 -8 4 C-8 3.01 -8 2.02 -8 1 C-5.10765685 0.17361624 -3.11257569 0 0 0 Z " fill="#CD07F2" transform="translate(201,213)"/>
<path d="M0 0 C0.33 0 0.66 0 1 0 C1.18175781 1.21236328 1.18175781 1.21236328 1.3671875 2.44921875 C1.53476563 3.51785156 1.70234375 4.58648437 1.875 5.6875 C2.03742188 6.74324219 2.19984375 7.79898438 2.3671875 8.88671875 C2.95893069 11.79794914 3.8031806 14.28955607 5 17 C2 16 2 16 0 13 C-0.1953125 9.86328125 -0.1953125 9.86328125 -0.125 6.3125 C-0.09792969 4.54326172 -0.09792969 4.54326172 -0.0703125 2.73828125 C-0.04710937 1.83464844 -0.02390625 0.93101562 0 0 Z " fill="#790F95" transform="translate(163,166)"/>
<path d="M0 0 C2.97 0.495 2.97 0.495 6 1 C6.33 3.31 6.66 5.62 7 8 C6.34 8 5.68 8 5 8 C0 2.52380952 0 2.52380952 0 0 Z " fill="#8B09E5" transform="translate(157,219)"/>
<path d="M0 0 C3.16115776 1.36983503 3.9927092 1.9890638 6 5 C6 5.99 6 6.98 6 8 C4.125 7.6875 4.125 7.6875 2 7 C0 4 0 4 0 0 Z " fill="#AB07F1" transform="translate(183,173)"/>
<path d="M0 0 C-0.33 2.31 -0.66 4.62 -1 7 C-2.32 7 -3.64 7 -5 7 C-4.6875 4.625 -4.6875 4.625 -4 2 C-1 0 -1 0 0 0 Z " fill="#8407EB" transform="translate(172,204)"/>
<path d="M0 0 C1.98 0 3.96 0 6 0 C5.67 0.66 5.34 1.32 5 2 C-0.52429247 3.74451341 -5.22850374 4.20612487 -11 4 C-11 3.67 -11 3.34 -11 3 C-5.555 2.505 -5.555 2.505 0 2 C0 1.34 0 0.68 0 0 Z " fill="#661393" transform="translate(144,163)"/>
<path d="M0 0 C0 2.62113708 -0.31292445 4.50935112 -1 7 C0.32 7 1.64 7 3 7 C3 7.66 3 8.32 3 9 C0.69 8.67 -1.62 8.34 -4 8 C-3.40072174 4.64404172 -2.15377564 2.62198774 0 0 Z " fill="#4E108F" transform="translate(168,204)"/>
<path d="M0 0 C-0.33 0.99 -0.66 1.98 -1 3 C-2.84765625 3.73046875 -2.84765625 3.73046875 -5.0625 4.1875 C-5.79597656 4.34605469 -6.52945313 4.50460938 -7.28515625 4.66796875 C-8.13400391 4.83232422 -8.13400391 4.83232422 -9 5 C-6.81610567 0.16423399 -5.20641855 -0.13701101 0 0 Z " fill="#B507F0" transform="translate(194,191)"/>
<path d="M0 0 C1.65 1.32 3.3 2.64 5 4 C4.6875 6.375 4.6875 6.375 4 9 C3.01 9.66 2.02 10.32 1 11 C0.01 10.01 -0.98 9.02 -2 8 C-0.35 8 1.3 8 3 8 C2.5359375 6.8553125 2.5359375 6.8553125 2.0625 5.6875 C1.32106407 3.81210323 0.63771783 1.91315348 0 0 Z " fill="#701582" transform="translate(168,183)"/>
<path d="M0 0 C0.66 0.33 1.32 0.66 2 1 C2 1.66 2 2.32 2 3 C3.65 3 5.3 3 7 3 C5.68 4.32 4.36 5.64 3 7 C1.68 5.68 0.36 4.36 -1 3 C-0.67 2.01 -0.34 1.02 0 0 Z " fill="#521096" transform="translate(105,212)"/>
<path d="M0 0 C0 0.99 0 1.98 0 3 C-2.31 3.33 -4.62 3.66 -7 4 C-7 3.01 -7 2.02 -7 1 C-4.53721199 -0.231394 -2.7204945 -0.07159196 0 0 Z " fill="#C709EF" transform="translate(151,181)"/>
<path d="M0 0 C0.66 0.33 1.32 0.66 2 1 C0.71451591 2.33929505 -0.57858155 3.67128643 -1.875 5 C-2.59429687 5.7425 -3.31359375 6.485 -4.0546875 7.25 C-6 9 -6 9 -8 9 C-6.4169423 4.7257442 -3.49431596 2.73468206 0 0 Z " fill="#999999" transform="translate(277,178)"/>
<path d="M0 0 C0 2.62113708 -0.31292445 4.50935112 -1 7 C-0.34 7.33 0.32 7.66 1 8 C-0.98 8 -2.96 8 -5 8 C-3.8141763 4.62496331 -2.72426311 2.35277269 0 0 Z " fill="#4E108A" transform="translate(123,224)"/>
<path d="M0 0 C1.98 0.99 1.98 0.99 4 2 C3.34 2 2.68 2 2 2 C2.33 5.63 2.66 9.26 3 13 C2.34 12.67 1.68 12.34 1 12 C0.5859375 9.27734375 0.5859375 9.27734375 0.375 5.9375 C0.30023438 4.83277344 0.22546875 3.72804687 0.1484375 2.58984375 C0.09945312 1.73519531 0.05046875 0.88054687 0 0 Z " fill="#4E137C" transform="translate(111,175)"/>
<path d="M0 0 C0.33 0.99 0.66 1.98 1 3 C1.99 3 2.98 3 4 3 C4 2.34 4 1.68 4 1 C4.99 1.33 5.98 1.66 7 2 C1.25 6 1.25 6 -1 6 C-1.33 5.01 -1.66 4.02 -2 3 C-1.34 2.01 -0.68 1.02 0 0 Z " fill="#9E0FCF" transform="translate(183,220)"/>
<path d="M0 0 C0.66 0.33 1.32 0.66 2 1 C1.75 3.375 1.75 3.375 1 6 C-1.0625 7.3125 -1.0625 7.3125 -3 8 C-1.125 1.125 -1.125 1.125 0 0 Z " fill="#AA0CE6" transform="translate(179,226)"/>
<path d="M0 0 C2 1 4 2 6 3 C6 3.99 6 4.98 6 6 C4.68 6 3.36 6 2 6 C1.34 4.02 0.68 2.04 0 0 Z " fill="#C507EF" transform="translate(193,185)"/>
<path d="M0 0 C0.66 0 1.32 0 2 0 C2.33 2.64 2.66 5.28 3 8 C2.01 8 1.02 8 0 8 C0 5.36 0 2.72 0 0 Z " fill="#780BB1" transform="translate(182,157)"/>
<path d="M0 0 C1.98 0.99 1.98 0.99 4 2 C4 3.32 4 4.64 4 6 C2.68 5.34 1.36 4.68 0 4 C0 2.68 0 1.36 0 0 Z " fill="#9A08EE" transform="translate(166,227)"/>
<path d="M0 0 C0.99 0 1.98 0 3 0 C2.67 1.65 2.34 3.3 2 5 C1.01 5.33 0.02 5.66 -1 6 C-0.67 4.02 -0.34 2.04 0 0 Z " fill="#9607EC" transform="translate(130,215)"/>
<path d="M0 0 C1.32 0.33 2.64 0.66 4 1 C4 2.32 4 3.64 4 5 C3.01 5 2.02 5 1 5 C0.67 3.35 0.34 1.7 0 0 Z " fill="#CF07EC" transform="translate(167,186)"/>
</svg>
